<?xml version="1.0" encoding="UTF-8"?><!DOCTYPE svg PUBLIC "-//W3C//DTD SVG 1.1//EN" "http://www.w3.org/Graphics/SVG/1.1/DTD/svg11.dtd"><svg xmlns="http://www.w3.org/2000/svg"><symbol id="icon-arrow-down-rounded" viewBox="0 0 32 32">
    <path d="M24.285 11.284L16 19.571l-8.285-8.288a1.01 1.01 0 1 0-1.429 1.43l8.999 9.002a1.009 1.009 0 0 0 1.428 0l8.999-9.002a1.01 1.01 0 1 0-1.427-1.429z"/>
</symbol><symbol id="icon-arrow-down" viewBox="0 0 24 24">
    <path stroke-miterlimit="10" stroke-width="2" d="M21 8.5l-9 9-9-9"/>
</symbol><symbol id="icon-arrow-left-bold" viewBox="0 0 32 32">
    <path d="M7.701 14.276l9.586-9.585a2.267 2.267 0 0 1 3.195 0l.801.8a2.266 2.266 0 0 1 0 3.194L13.968 16l7.315 7.315a2.266 2.266 0 0 1 0 3.194l-.801.8a2.265 2.265 0 0 1-3.195 0l-9.586-9.587A2.24 2.24 0 0 1 7.054 16a2.248 2.248 0 0 1 .647-1.724z"/>
</symbol><symbol id="icon-arrow-left-slim" viewBox="0 0 32 32">
    <path clip-rule="evenodd" d="M31.106 15H3.278l8.325-8.293a.999.999 0 1 0-1.414-1.414l-9.9 9.899a1.01 1.01 0 0 0 0 1.414l9.9 9.9a.999.999 0 1 0 1.414-1.414L3.278 17h27.828a1 1 0 0 0 0-2z" fill-rule="evenodd"/>
</symbol><symbol id="icon-arrow-right-bold" viewBox="0 0 32 32">
    <path d="M24.291 14.276L14.705 4.69a2.267 2.267 0 0 0-3.195 0l-.8.8a2.266 2.266 0 0 0 0 3.194L18.024 16l-7.315 7.315a2.266 2.266 0 0 0 0 3.194l.8.8a2.265 2.265 0 0 0 3.195 0l9.586-9.587a2.24 2.24 0 0 0 .647-1.723 2.239 2.239 0 0 0-.646-1.723z"/>
</symbol><symbol id="icon-arrow-right-slim" viewBox="0 0 32 32">
    <path clip-rule="evenodd" d="M32 16.009c0-.267-.11-.522-.293-.714l-9.899-9.999a.993.993 0 0 0-1.414 0 1.016 1.016 0 0 0 0 1.428l8.193 8.275H1c-.552 0-1 .452-1 1.01s.448 1.01 1 1.01h27.586l-8.192 8.275a1.017 1.017 0 0 0 0 1.428.994.994 0 0 0 1.414 0l9.899-9.999c.187-.189.29-.449.293-.714z" fill-rule="evenodd"/>
</symbol><symbol id="icon-arrow-up" viewBox="0 0 24 24">
    <path stroke-miterlimit="10" stroke-width="2" d="M3 15.5l9-9 9 9"/>
</symbol><symbol id="icon-check" viewBox="0 0 32 32">
    <path clip-rule="evenodd" d="M27.704 8.397a1.016 1.016 0 0 0-1.428 0L11.988 22.59l-6.282-6.193a1.016 1.016 0 0 0-1.428 0 .994.994 0 0 0 0 1.414l6.999 6.899c.39.386 1.039.386 1.429 0L27.704 9.811a.992.992 0 0 0 0-1.414c-.394-.391.395.39 0 0z" fill-rule="evenodd"/>
</symbol><symbol id="icon-facebook" viewBox="0 0 10 19">
    <title>
        facebook
    </title>
    <path d="M9.766.157v2.946H8.014c-.64 0-1.071.134-1.295.402-.223.268-.335.67-.335 1.205v2.11h3.27l-.435 3.303H6.384v8.471H2.97v-8.47H.123V6.82H2.97V4.387c0-1.384.387-2.457 1.161-3.22C4.904.404 5.934.023 7.222.023c1.093 0 1.941.045 2.544.134z" fill-rule="evenodd"/>
</symbol><symbol id="icon-vk" viewBox="0 0 24 24">
    <title/>
    <path d="M21.547 7h-3.29a.743.743 0 0 0-.655.392s-1.312 2.416-1.734 3.23C14.734 12.813 14 12.126 14 11.11V7.604A1.104 1.104 0 0 0 12.896 6.5h-2.474a1.982 1.982 0 0 0-1.751.813s1.256-.204 1.256 1.49c0 .419.022 1.626.041 2.64a.73.73 0 0 1-1.273.503 21.54 21.54 0 0 1-2.498-4.543.693.693 0 0 0-.63-.403h-2.99a.508.508 0 0 0-.48.685C3.005 10.175 6.916 18 11.38 18h1.879a.742.742 0 0 0 .742-.742v-1.135a.73.73 0 0 1 1.229-.531l2.248 2.113a1.09 1.09 0 0 0 .746.295h2.953c1.424 0 1.424-.988.647-1.753-.546-.538-2.518-2.617-2.518-2.617a1.019 1.019 0 0 1-.078-1.323c.637-.839 1.68-2.212 2.122-2.8.604-.804 1.698-2.507.198-2.507z"/>
</symbol></svg>